<mxfile host="app.diagrams.net" agent="Mozilla/5.0 (Windows NT 10.0; Win64; x64) AppleWebKit/537.36 (KHTML, like Gecko) Chrome/132.0.0.0 Safari/537.36" version="26.0.10">
  <diagram name="Page-1" id="13e1069c-82ec-6db2-03f1-153e76fe0fe0">
    <mxGraphModel dx="1909" dy="1107" grid="1" gridSize="10" guides="1" tooltips="1" connect="1" arrows="1" fold="1" page="1" pageScale="1" pageWidth="1100" pageHeight="850" background="none" math="0" shadow="0">
      <root>
        <mxCell id="0" />
        <mxCell id="1" parent="0" />
        <mxCell id="7baba1c4bc27f4b0-2" value=":Payment Gateway" style="shape=umlLifeline;perimeter=lifelinePerimeter;whiteSpace=wrap;html=1;container=1;collapsible=0;recursiveResize=0;outlineConnect=0;rounded=1;shadow=0;comic=0;labelBackgroundColor=none;strokeWidth=1;fontFamily=Verdana;fontSize=12;align=center;" parent="1" vertex="1">
          <mxGeometry x="340" y="80" width="100" height="1280" as="geometry" />
        </mxCell>
        <mxCell id="7baba1c4bc27f4b0-10" value="" style="html=1;points=[];perimeter=orthogonalPerimeter;rounded=0;shadow=0;comic=0;labelBackgroundColor=none;strokeWidth=1;fontFamily=Verdana;fontSize=12;align=center;" parent="7baba1c4bc27f4b0-2" vertex="1">
          <mxGeometry x="45" y="100" width="10" height="100" as="geometry" />
        </mxCell>
        <mxCell id="axSHeAp-DngT5ct-2jIC-14" value="" style="html=1;verticalAlign=bottom;endArrow=block;labelBackgroundColor=none;fontFamily=Verdana;fontSize=12;edgeStyle=orthogonalEdgeStyle;elbow=vertical;exitX=1.098;exitY=0.027;exitDx=0;exitDy=0;exitPerimeter=0;entryX=1.255;entryY=0.091;entryDx=0;entryDy=0;entryPerimeter=0;curved=1;" edge="1" parent="7baba1c4bc27f4b0-2" target="axSHeAp-DngT5ct-2jIC-5">
          <mxGeometry x="0.2433" relative="1" as="geometry">
            <mxPoint x="55" y="200" as="sourcePoint" />
            <mxPoint x="64" y="227" as="targetPoint" />
            <Array as="points">
              <mxPoint x="90" y="200" />
              <mxPoint x="90" y="253" />
            </Array>
            <mxPoint as="offset" />
          </mxGeometry>
        </mxCell>
        <mxCell id="axSHeAp-DngT5ct-2jIC-46" value="" style="html=1;points=[];perimeter=orthogonalPerimeter;rounded=0;shadow=0;comic=0;labelBackgroundColor=none;strokeWidth=1;fontFamily=Verdana;fontSize=12;align=center;" vertex="1" parent="7baba1c4bc27f4b0-2">
          <mxGeometry x="45" y="600" width="10" height="40" as="geometry" />
        </mxCell>
        <mxCell id="axSHeAp-DngT5ct-2jIC-60" value="withdraw Notification" style="html=1;verticalAlign=bottom;endArrow=block;labelBackgroundColor=none;fontFamily=Verdana;fontSize=12;edgeStyle=elbowEdgeStyle;elbow=vertical;exitX=0;exitY=1.003;exitDx=0;exitDy=0;exitPerimeter=0;" edge="1" parent="7baba1c4bc27f4b0-2" source="axSHeAp-DngT5ct-2jIC-42">
          <mxGeometry relative="1" as="geometry">
            <mxPoint x="200" y="700" as="sourcePoint" />
            <mxPoint x="-80" y="700" as="targetPoint" />
          </mxGeometry>
        </mxCell>
        <mxCell id="axSHeAp-DngT5ct-2jIC-72" value="" style="html=1;points=[];perimeter=orthogonalPerimeter;rounded=0;shadow=0;comic=0;labelBackgroundColor=none;strokeWidth=1;fontFamily=Verdana;fontSize=12;align=center;" vertex="1" parent="7baba1c4bc27f4b0-2">
          <mxGeometry x="45" y="1040" width="10" height="110" as="geometry" />
        </mxCell>
        <mxCell id="axSHeAp-DngT5ct-2jIC-75" value="order&lt;div&gt;cancellation success&lt;/div&gt;" style="html=1;verticalAlign=bottom;endArrow=block;labelBackgroundColor=none;fontFamily=Verdana;fontSize=12;edgeStyle=elbowEdgeStyle;elbow=vertical;entryX=-0.267;entryY=0.057;entryDx=0;entryDy=0;entryPerimeter=0;" edge="1" parent="7baba1c4bc27f4b0-2" target="axSHeAp-DngT5ct-2jIC-74">
          <mxGeometry relative="1" as="geometry">
            <mxPoint x="55" y="1150" as="sourcePoint" />
            <mxPoint x="175" y="1150" as="targetPoint" />
          </mxGeometry>
        </mxCell>
        <mxCell id="7baba1c4bc27f4b0-3" value=":Payment Agent" style="shape=umlLifeline;perimeter=lifelinePerimeter;whiteSpace=wrap;html=1;container=1;collapsible=0;recursiveResize=0;outlineConnect=0;rounded=1;shadow=0;comic=0;labelBackgroundColor=none;strokeWidth=1;fontFamily=Verdana;fontSize=12;align=center;" parent="1" vertex="1">
          <mxGeometry x="500" y="80" width="100" height="1280" as="geometry" />
        </mxCell>
        <mxCell id="7baba1c4bc27f4b0-13" value="" style="html=1;points=[];perimeter=orthogonalPerimeter;rounded=0;shadow=0;comic=0;labelBackgroundColor=none;strokeWidth=1;fontFamily=Verdana;fontSize=12;align=center;" parent="7baba1c4bc27f4b0-3" vertex="1">
          <mxGeometry x="45" y="120" width="10" height="70" as="geometry" />
        </mxCell>
        <mxCell id="axSHeAp-DngT5ct-2jIC-42" value="" style="html=1;points=[];perimeter=orthogonalPerimeter;rounded=0;shadow=0;comic=0;labelBackgroundColor=none;strokeWidth=1;fontFamily=Verdana;fontSize=12;align=center;" vertex="1" parent="7baba1c4bc27f4b0-3">
          <mxGeometry x="45" y="600" width="10" height="100" as="geometry" />
        </mxCell>
        <mxCell id="axSHeAp-DngT5ct-2jIC-53" value="dispatch" style="html=1;verticalAlign=bottom;endArrow=block;labelBackgroundColor=none;fontFamily=Verdana;fontSize=12;edgeStyle=elbowEdgeStyle;elbow=vertical;" edge="1" parent="7baba1c4bc27f4b0-3" target="7baba1c4bc27f4b0-2">
          <mxGeometry relative="1" as="geometry">
            <mxPoint x="45" y="600.43" as="sourcePoint" />
            <mxPoint x="-86" y="600.31" as="targetPoint" />
          </mxGeometry>
        </mxCell>
        <mxCell id="axSHeAp-DngT5ct-2jIC-54" value="dispatch" style="html=1;verticalAlign=bottom;endArrow=block;entryX=0;entryY=0;labelBackgroundColor=none;fontFamily=Verdana;fontSize=12;edgeStyle=elbowEdgeStyle;elbow=vertical;" edge="1" parent="7baba1c4bc27f4b0-3">
          <mxGeometry relative="1" as="geometry">
            <mxPoint x="-105" y="630.3299999999999" as="sourcePoint" />
            <mxPoint x="45" y="630" as="targetPoint" />
          </mxGeometry>
        </mxCell>
        <mxCell id="axSHeAp-DngT5ct-2jIC-20" value="cancelOrder()" style="html=1;verticalAlign=bottom;endArrow=block;labelBackgroundColor=none;fontFamily=Verdana;fontSize=12;edgeStyle=elbowEdgeStyle;elbow=vertical;" edge="1" parent="7baba1c4bc27f4b0-3" target="7baba1c4bc27f4b0-4">
          <mxGeometry relative="1" as="geometry">
            <mxPoint x="-255" y="900" as="sourcePoint" />
            <mxPoint x="160" y="900" as="targetPoint" />
          </mxGeometry>
        </mxCell>
        <mxCell id="axSHeAp-DngT5ct-2jIC-74" value="" style="html=1;points=[];perimeter=orthogonalPerimeter;rounded=0;shadow=0;comic=0;labelBackgroundColor=none;strokeWidth=1;fontFamily=Verdana;fontSize=12;align=center;" vertex="1" parent="7baba1c4bc27f4b0-3">
          <mxGeometry x="45" y="1145" width="10" height="65" as="geometry" />
        </mxCell>
        <mxCell id="axSHeAp-DngT5ct-2jIC-76" value="refund()" style="html=1;verticalAlign=bottom;endArrow=block;labelBackgroundColor=none;fontFamily=Verdana;fontSize=12;edgeStyle=orthogonalEdgeStyle;elbow=vertical;exitX=1.098;exitY=0.027;exitDx=0;exitDy=0;exitPerimeter=0;entryX=1.032;entryY=0.99;entryDx=0;entryDy=0;entryPerimeter=0;curved=1;" edge="1" parent="7baba1c4bc27f4b0-3" target="axSHeAp-DngT5ct-2jIC-74">
          <mxGeometry x="0.1247" relative="1" as="geometry">
            <mxPoint x="55.960000000000036" y="1150" as="sourcePoint" />
            <mxPoint x="64.96000000000004" y="1177" as="targetPoint" />
            <Array as="points">
              <mxPoint x="100" y="1150" />
              <mxPoint x="100" y="1210" />
              <mxPoint x="55" y="1210" />
            </Array>
            <mxPoint as="offset" />
          </mxGeometry>
        </mxCell>
        <mxCell id="7baba1c4bc27f4b0-4" value=":Order Management" style="shape=umlLifeline;perimeter=lifelinePerimeter;whiteSpace=wrap;html=1;container=1;collapsible=0;recursiveResize=0;outlineConnect=0;rounded=1;shadow=0;comic=0;labelBackgroundColor=none;strokeWidth=1;fontFamily=Verdana;fontSize=12;align=center;" parent="1" vertex="1">
          <mxGeometry x="640" y="80" width="100" height="1280" as="geometry" />
        </mxCell>
        <mxCell id="axSHeAp-DngT5ct-2jIC-27" value="" style="html=1;points=[];perimeter=orthogonalPerimeter;rounded=0;shadow=0;comic=0;labelBackgroundColor=none;strokeWidth=1;fontFamily=Verdana;fontSize=12;align=center;" vertex="1" parent="7baba1c4bc27f4b0-4">
          <mxGeometry x="45" y="470" width="10" height="130" as="geometry" />
        </mxCell>
        <mxCell id="axSHeAp-DngT5ct-2jIC-32" value="" style="html=1;points=[];perimeter=orthogonalPerimeter;rounded=0;shadow=0;comic=0;labelBackgroundColor=none;strokeWidth=1;fontFamily=Verdana;fontSize=12;align=center;" vertex="1" parent="7baba1c4bc27f4b0-4">
          <mxGeometry x="35" y="505" width="10" height="60" as="geometry" />
        </mxCell>
        <mxCell id="axSHeAp-DngT5ct-2jIC-34" value="complete order" style="html=1;verticalAlign=bottom;endArrow=block;labelBackgroundColor=none;fontFamily=Verdana;fontSize=12;edgeStyle=orthogonalEdgeStyle;elbow=vertical;exitX=0.067;exitY=0.057;exitDx=0;exitDy=0;exitPerimeter=0;entryX=-0.267;entryY=0.017;entryDx=0;entryDy=0;entryPerimeter=0;curved=1;" edge="1" parent="7baba1c4bc27f4b0-4" source="axSHeAp-DngT5ct-2jIC-27" target="axSHeAp-DngT5ct-2jIC-32">
          <mxGeometry x="0.2808" relative="1" as="geometry">
            <mxPoint x="-20" y="478" as="sourcePoint" />
            <mxPoint x="-11" y="505" as="targetPoint" />
            <Array as="points">
              <mxPoint y="477" />
              <mxPoint y="506" />
            </Array>
            <mxPoint as="offset" />
          </mxGeometry>
        </mxCell>
        <mxCell id="axSHeAp-DngT5ct-2jIC-44" value="releaseFund()" style="html=1;verticalAlign=bottom;endArrow=block;labelBackgroundColor=none;fontFamily=Verdana;fontSize=12;edgeStyle=elbowEdgeStyle;elbow=vertical;entryX=0.941;entryY=0.002;entryDx=0;entryDy=0;entryPerimeter=0;" edge="1" parent="7baba1c4bc27f4b0-4" target="axSHeAp-DngT5ct-2jIC-42">
          <mxGeometry relative="1" as="geometry">
            <mxPoint x="45" y="600.12" as="sourcePoint" />
            <mxPoint x="-80" y="600" as="targetPoint" />
          </mxGeometry>
        </mxCell>
        <mxCell id="axSHeAp-DngT5ct-2jIC-39" value="getMoney()" style="html=1;verticalAlign=bottom;endArrow=block;labelBackgroundColor=none;fontFamily=Verdana;fontSize=12;edgeStyle=elbowEdgeStyle;elbow=vertical;entryX=-0.213;entryY=0.076;entryDx=0;entryDy=0;entryPerimeter=0;" edge="1" parent="7baba1c4bc27f4b0-4" target="axSHeAp-DngT5ct-2jIC-41">
          <mxGeometry relative="1" as="geometry">
            <mxPoint x="-87.5" y="630.5" as="sourcePoint" />
            <Array as="points">
              <mxPoint x="-87.5" y="630" />
            </Array>
            <mxPoint x="320" y="630" as="targetPoint" />
          </mxGeometry>
        </mxCell>
        <mxCell id="axSHeAp-DngT5ct-2jIC-24" value="" style="html=1;points=[];perimeter=orthogonalPerimeter;rounded=0;shadow=0;comic=0;labelBackgroundColor=none;strokeWidth=1;fontFamily=Verdana;fontSize=12;align=center;" vertex="1" parent="7baba1c4bc27f4b0-4">
          <mxGeometry x="45" y="900" width="10" height="100" as="geometry" />
        </mxCell>
        <mxCell id="7baba1c4bc27f4b0-5" value=":Database" style="shape=umlLifeline;perimeter=lifelinePerimeter;whiteSpace=wrap;html=1;container=1;collapsible=0;recursiveResize=0;outlineConnect=0;rounded=1;shadow=0;comic=0;labelBackgroundColor=none;strokeWidth=1;fontFamily=Verdana;fontSize=12;align=center;" parent="1" vertex="1">
          <mxGeometry x="780" y="80" width="100" height="1280" as="geometry" />
        </mxCell>
        <mxCell id="axSHeAp-DngT5ct-2jIC-35" value="" style="html=1;points=[];perimeter=orthogonalPerimeter;rounded=0;shadow=0;comic=0;labelBackgroundColor=none;strokeWidth=1;fontFamily=Verdana;fontSize=12;align=center;" vertex="1" parent="7baba1c4bc27f4b0-5">
          <mxGeometry x="-85" y="513.75" width="10" height="40" as="geometry" />
        </mxCell>
        <mxCell id="axSHeAp-DngT5ct-2jIC-36" value="" style="html=1;points=[];perimeter=orthogonalPerimeter;rounded=0;shadow=0;comic=0;labelBackgroundColor=none;strokeWidth=1;fontFamily=Verdana;fontSize=12;align=center;" vertex="1" parent="7baba1c4bc27f4b0-5">
          <mxGeometry x="45" y="516.25" width="10" height="40" as="geometry" />
        </mxCell>
        <mxCell id="axSHeAp-DngT5ct-2jIC-37" value="updateDB" style="html=1;verticalAlign=bottom;endArrow=block;labelBackgroundColor=none;fontFamily=Verdana;fontSize=12;edgeStyle=elbowEdgeStyle;elbow=vertical;entryX=-0.019;entryY=0.191;entryDx=0;entryDy=0;entryPerimeter=0;" edge="1" parent="7baba1c4bc27f4b0-5" target="axSHeAp-DngT5ct-2jIC-36">
          <mxGeometry relative="1" as="geometry">
            <mxPoint x="-75" y="523.75" as="sourcePoint" />
            <mxPoint x="30" y="523.75" as="targetPoint" />
          </mxGeometry>
        </mxCell>
        <mxCell id="axSHeAp-DngT5ct-2jIC-38" value="status" style="html=1;verticalAlign=bottom;endArrow=open;dashed=1;endSize=8;labelBackgroundColor=none;fontFamily=Verdana;fontSize=12;edgeStyle=elbowEdgeStyle;elbow=vertical;exitX=0.036;exitY=0.933;exitDx=0;exitDy=0;exitPerimeter=0;entryX=0.996;entryY=1.013;entryDx=0;entryDy=0;entryPerimeter=0;" edge="1" parent="7baba1c4bc27f4b0-5" source="axSHeAp-DngT5ct-2jIC-36" target="axSHeAp-DngT5ct-2jIC-35">
          <mxGeometry relative="1" as="geometry">
            <mxPoint x="-70" y="553.75" as="targetPoint" />
            <Array as="points">
              <mxPoint x="-5" y="553.75" />
              <mxPoint x="25" y="553.75" />
            </Array>
            <mxPoint x="40" y="553.75" as="sourcePoint" />
          </mxGeometry>
        </mxCell>
        <mxCell id="axSHeAp-DngT5ct-2jIC-55" value="" style="html=1;points=[];perimeter=orthogonalPerimeter;rounded=0;shadow=0;comic=0;labelBackgroundColor=none;strokeWidth=1;fontFamily=Verdana;fontSize=12;align=center;" vertex="1" parent="7baba1c4bc27f4b0-5">
          <mxGeometry x="45" y="640" width="10" height="40" as="geometry" />
        </mxCell>
        <mxCell id="axSHeAp-DngT5ct-2jIC-66" value="" style="html=1;points=[];perimeter=orthogonalPerimeter;rounded=0;shadow=0;comic=0;labelBackgroundColor=none;strokeWidth=1;fontFamily=Verdana;fontSize=12;align=center;" vertex="1" parent="7baba1c4bc27f4b0-5">
          <mxGeometry x="-85" y="920" width="10" height="40" as="geometry" />
        </mxCell>
        <mxCell id="axSHeAp-DngT5ct-2jIC-67" value="" style="html=1;points=[];perimeter=orthogonalPerimeter;rounded=0;shadow=0;comic=0;labelBackgroundColor=none;strokeWidth=1;fontFamily=Verdana;fontSize=12;align=center;" vertex="1" parent="7baba1c4bc27f4b0-5">
          <mxGeometry x="45" y="922.5" width="10" height="40" as="geometry" />
        </mxCell>
        <mxCell id="axSHeAp-DngT5ct-2jIC-68" value="checkDB()" style="html=1;verticalAlign=bottom;endArrow=block;labelBackgroundColor=none;fontFamily=Verdana;fontSize=12;edgeStyle=elbowEdgeStyle;elbow=vertical;entryX=-0.019;entryY=0.191;entryDx=0;entryDy=0;entryPerimeter=0;" edge="1" parent="7baba1c4bc27f4b0-5" target="axSHeAp-DngT5ct-2jIC-67">
          <mxGeometry relative="1" as="geometry">
            <mxPoint x="-75" y="930" as="sourcePoint" />
            <mxPoint x="30" y="930" as="targetPoint" />
          </mxGeometry>
        </mxCell>
        <mxCell id="axSHeAp-DngT5ct-2jIC-69" value="status" style="html=1;verticalAlign=bottom;endArrow=open;dashed=1;endSize=8;labelBackgroundColor=none;fontFamily=Verdana;fontSize=12;edgeStyle=elbowEdgeStyle;elbow=vertical;exitX=0.036;exitY=0.933;exitDx=0;exitDy=0;exitPerimeter=0;entryX=0.996;entryY=1.013;entryDx=0;entryDy=0;entryPerimeter=0;" edge="1" parent="7baba1c4bc27f4b0-5" source="axSHeAp-DngT5ct-2jIC-67" target="axSHeAp-DngT5ct-2jIC-66">
          <mxGeometry relative="1" as="geometry">
            <mxPoint x="-70" y="960" as="targetPoint" />
            <Array as="points">
              <mxPoint x="-5" y="960" />
              <mxPoint x="25" y="960" />
            </Array>
            <mxPoint x="40" y="960" as="sourcePoint" />
          </mxGeometry>
        </mxCell>
        <mxCell id="7baba1c4bc27f4b0-8" value=":User Agent" style="shape=umlLifeline;perimeter=lifelinePerimeter;whiteSpace=wrap;html=1;container=1;collapsible=0;recursiveResize=0;outlineConnect=0;rounded=1;shadow=0;comic=0;labelBackgroundColor=none;strokeWidth=1;fontFamily=Verdana;fontSize=12;align=center;" parent="1" vertex="1">
          <mxGeometry x="200" y="80" width="100" height="1280" as="geometry" />
        </mxCell>
        <mxCell id="7baba1c4bc27f4b0-9" value="" style="html=1;points=[];perimeter=orthogonalPerimeter;rounded=0;shadow=0;comic=0;labelBackgroundColor=none;strokeWidth=1;fontFamily=Verdana;fontSize=12;align=center;" parent="7baba1c4bc27f4b0-8" vertex="1">
          <mxGeometry x="45" y="100" width="10" height="270" as="geometry" />
        </mxCell>
        <mxCell id="axSHeAp-DngT5ct-2jIC-26" value="" style="html=1;points=[];perimeter=orthogonalPerimeter;rounded=0;shadow=0;comic=0;labelBackgroundColor=none;strokeWidth=1;fontFamily=Verdana;fontSize=12;align=center;" vertex="1" parent="7baba1c4bc27f4b0-8">
          <mxGeometry x="45" y="470" width="10" height="250" as="geometry" />
        </mxCell>
        <mxCell id="axSHeAp-DngT5ct-2jIC-19" value="" style="html=1;points=[];perimeter=orthogonalPerimeter;rounded=0;shadow=0;comic=0;labelBackgroundColor=none;strokeWidth=1;fontFamily=Verdana;fontSize=12;align=center;" vertex="1" parent="7baba1c4bc27f4b0-8">
          <mxGeometry x="45" y="900.56" width="10" height="319.44" as="geometry" />
        </mxCell>
        <mxCell id="7baba1c4bc27f4b0-11" value="initPay()" style="html=1;verticalAlign=bottom;endArrow=block;entryX=0;entryY=0;labelBackgroundColor=none;fontFamily=Verdana;fontSize=12;edgeStyle=elbowEdgeStyle;elbow=vertical;" parent="1" source="7baba1c4bc27f4b0-9" target="7baba1c4bc27f4b0-10" edge="1">
          <mxGeometry relative="1" as="geometry">
            <mxPoint x="320" y="190" as="sourcePoint" />
          </mxGeometry>
        </mxCell>
        <mxCell id="7baba1c4bc27f4b0-14" value="dispatch" style="html=1;verticalAlign=bottom;endArrow=block;entryX=0;entryY=0;labelBackgroundColor=none;fontFamily=Verdana;fontSize=12;edgeStyle=elbowEdgeStyle;elbow=vertical;" parent="1" source="7baba1c4bc27f4b0-10" target="7baba1c4bc27f4b0-13" edge="1">
          <mxGeometry relative="1" as="geometry">
            <mxPoint x="470" y="200" as="sourcePoint" />
          </mxGeometry>
        </mxCell>
        <mxCell id="axSHeAp-DngT5ct-2jIC-3" value="payment agent status" style="html=1;verticalAlign=bottom;endArrow=open;labelBackgroundColor=none;fontFamily=Verdana;fontSize=12;edgeStyle=elbowEdgeStyle;elbow=vertical;exitX=0.026;exitY=1.006;exitDx=0;exitDy=0;exitPerimeter=0;dashed=1;endFill=0;" edge="1" parent="1" source="7baba1c4bc27f4b0-13">
          <mxGeometry relative="1" as="geometry">
            <mxPoint x="540" y="300" as="sourcePoint" />
            <mxPoint x="400" y="270" as="targetPoint" />
          </mxGeometry>
        </mxCell>
        <mxCell id="axSHeAp-DngT5ct-2jIC-4" value="payment Status" style="html=1;verticalAlign=bottom;endArrow=open;dashed=1;endSize=8;labelBackgroundColor=none;fontFamily=Verdana;fontSize=12;" edge="1" parent="1">
          <mxGeometry relative="1" as="geometry">
            <mxPoint x="260" y="280" as="targetPoint" />
            <mxPoint x="395" y="280.5" as="sourcePoint" />
          </mxGeometry>
        </mxCell>
        <mxCell id="7baba1c4bc27f4b0-16" value="" style="html=1;points=[];perimeter=orthogonalPerimeter;rounded=0;shadow=0;comic=0;labelBackgroundColor=none;strokeWidth=1;fontFamily=Verdana;fontSize=12;align=center;" parent="1" vertex="1">
          <mxGeometry x="685" y="357.5" width="10" height="95" as="geometry" />
        </mxCell>
        <mxCell id="7baba1c4bc27f4b0-17" value="payment success notification" style="html=1;verticalAlign=bottom;endArrow=block;labelBackgroundColor=none;fontFamily=Verdana;fontSize=12;edgeStyle=elbowEdgeStyle;elbow=vertical;" parent="1" source="axSHeAp-DngT5ct-2jIC-5" edge="1">
          <mxGeometry relative="1" as="geometry">
            <mxPoint x="390" y="357.5" as="sourcePoint" />
            <Array as="points">
              <mxPoint x="395" y="357.5" />
            </Array>
            <mxPoint x="689.5" y="357.5" as="targetPoint" />
          </mxGeometry>
        </mxCell>
        <mxCell id="axSHeAp-DngT5ct-2jIC-8" value="" style="html=1;points=[];perimeter=orthogonalPerimeter;rounded=0;shadow=0;comic=0;labelBackgroundColor=none;strokeWidth=1;fontFamily=Verdana;fontSize=12;align=center;" vertex="1" parent="1">
          <mxGeometry x="695" y="382.5" width="10" height="40" as="geometry" />
        </mxCell>
        <mxCell id="axSHeAp-DngT5ct-2jIC-9" value="place order" style="html=1;verticalAlign=bottom;endArrow=block;labelBackgroundColor=none;fontFamily=Verdana;fontSize=12;edgeStyle=orthogonalEdgeStyle;elbow=vertical;exitX=1.098;exitY=0.027;exitDx=0;exitDy=0;exitPerimeter=0;entryX=1.019;entryY=0.106;entryDx=0;entryDy=0;entryPerimeter=0;curved=1;" edge="1" parent="1" source="7baba1c4bc27f4b0-16" target="axSHeAp-DngT5ct-2jIC-8">
          <mxGeometry x="-0.1195" relative="1" as="geometry">
            <mxPoint x="750" y="352.5" as="sourcePoint" />
            <mxPoint x="760" y="372.5" as="targetPoint" />
            <Array as="points">
              <mxPoint x="740" y="359.5" />
              <mxPoint x="740" y="386.5" />
            </Array>
            <mxPoint as="offset" />
          </mxGeometry>
        </mxCell>
        <mxCell id="7baba1c4bc27f4b0-19" value="" style="html=1;points=[];perimeter=orthogonalPerimeter;rounded=0;shadow=0;comic=0;labelBackgroundColor=none;strokeWidth=1;fontFamily=Verdana;fontSize=12;align=center;" parent="1" vertex="1">
          <mxGeometry x="825" y="385" width="10" height="40" as="geometry" />
        </mxCell>
        <mxCell id="axSHeAp-DngT5ct-2jIC-12" value="updateDB" style="html=1;verticalAlign=bottom;endArrow=block;labelBackgroundColor=none;fontFamily=Verdana;fontSize=12;edgeStyle=elbowEdgeStyle;elbow=vertical;entryX=-0.019;entryY=0.191;entryDx=0;entryDy=0;entryPerimeter=0;" edge="1" parent="1" target="7baba1c4bc27f4b0-19">
          <mxGeometry relative="1" as="geometry">
            <mxPoint x="705" y="392.5" as="sourcePoint" />
            <mxPoint x="810" y="392.5" as="targetPoint" />
          </mxGeometry>
        </mxCell>
        <mxCell id="axSHeAp-DngT5ct-2jIC-11" value="status" style="html=1;verticalAlign=bottom;endArrow=open;dashed=1;endSize=8;labelBackgroundColor=none;fontFamily=Verdana;fontSize=12;edgeStyle=elbowEdgeStyle;elbow=vertical;exitX=0.036;exitY=0.933;exitDx=0;exitDy=0;exitPerimeter=0;entryX=0.996;entryY=1.013;entryDx=0;entryDy=0;entryPerimeter=0;" edge="1" parent="1" source="7baba1c4bc27f4b0-19" target="axSHeAp-DngT5ct-2jIC-8">
          <mxGeometry relative="1" as="geometry">
            <mxPoint x="710" y="422.5" as="targetPoint" />
            <Array as="points">
              <mxPoint x="775" y="422.5" />
              <mxPoint x="805" y="422.5" />
            </Array>
            <mxPoint x="820" y="422.5" as="sourcePoint" />
          </mxGeometry>
        </mxCell>
        <mxCell id="axSHeAp-DngT5ct-2jIC-13" value="" style="html=1;verticalAlign=bottom;endArrow=block;labelBackgroundColor=none;fontFamily=Verdana;fontSize=12;edgeStyle=elbowEdgeStyle;elbow=vertical;" edge="1" parent="1" target="axSHeAp-DngT5ct-2jIC-5">
          <mxGeometry relative="1" as="geometry">
            <mxPoint x="390" y="357.5" as="sourcePoint" />
            <Array as="points" />
            <mxPoint x="689.5" y="357.5" as="targetPoint" />
          </mxGeometry>
        </mxCell>
        <mxCell id="axSHeAp-DngT5ct-2jIC-5" value="" style="html=1;points=[];perimeter=orthogonalPerimeter;rounded=0;shadow=0;comic=0;labelBackgroundColor=none;strokeWidth=1;fontFamily=Verdana;fontSize=12;align=center;" vertex="1" parent="1">
          <mxGeometry x="385" y="330" width="10" height="35" as="geometry" />
        </mxCell>
        <mxCell id="7baba1c4bc27f4b0-30" value="order confirmation" style="html=1;verticalAlign=bottom;endArrow=open;dashed=1;endSize=8;labelBackgroundColor=none;fontFamily=Verdana;fontSize=12;edgeStyle=elbowEdgeStyle;elbow=vertical;exitX=-0.131;exitY=0.974;exitDx=0;exitDy=0;exitPerimeter=0;" parent="1" source="7baba1c4bc27f4b0-16" edge="1">
          <mxGeometry relative="1" as="geometry">
            <mxPoint x="255" y="450" as="targetPoint" />
            <Array as="points">
              <mxPoint x="670" y="450" />
            </Array>
            <mxPoint x="680" y="450" as="sourcePoint" />
          </mxGeometry>
        </mxCell>
        <mxCell id="axSHeAp-DngT5ct-2jIC-17" value="payment == success" style="shape=umlFrame;whiteSpace=wrap;html=1;pointerEvents=0;width=130;height=20;" vertex="1" parent="1">
          <mxGeometry x="290" y="300" width="600" height="180" as="geometry" />
        </mxCell>
        <mxCell id="axSHeAp-DngT5ct-2jIC-18" value="customer payment" style="shape=umlFrame;whiteSpace=wrap;html=1;pointerEvents=0;width=70;height=40;" vertex="1" parent="1">
          <mxGeometry x="140" y="150" width="800" height="370" as="geometry" />
        </mxCell>
        <mxCell id="axSHeAp-DngT5ct-2jIC-25" value=":Seller Wallet" style="shape=umlLifeline;perimeter=lifelinePerimeter;whiteSpace=wrap;html=1;container=1;collapsible=0;recursiveResize=0;outlineConnect=0;rounded=1;shadow=0;comic=0;labelBackgroundColor=none;strokeWidth=1;fontFamily=Verdana;fontSize=12;align=center;" vertex="1" parent="1">
          <mxGeometry x="920" y="80" width="100" height="1280" as="geometry" />
        </mxCell>
        <mxCell id="axSHeAp-DngT5ct-2jIC-41" value="" style="html=1;points=[];perimeter=orthogonalPerimeter;rounded=0;shadow=0;comic=0;labelBackgroundColor=none;strokeWidth=1;fontFamily=Verdana;fontSize=12;align=center;" vertex="1" parent="axSHeAp-DngT5ct-2jIC-25">
          <mxGeometry x="45" y="625" width="10" height="65" as="geometry" />
        </mxCell>
        <mxCell id="axSHeAp-DngT5ct-2jIC-58" value="releaseStatus" style="html=1;verticalAlign=bottom;endArrow=block;labelBackgroundColor=none;fontFamily=Verdana;fontSize=12;edgeStyle=elbowEdgeStyle;elbow=vertical;entryX=1.1;entryY=0.907;entryDx=0;entryDy=0;entryPerimeter=0;" edge="1" parent="axSHeAp-DngT5ct-2jIC-25" target="axSHeAp-DngT5ct-2jIC-42">
          <mxGeometry relative="1" as="geometry">
            <mxPoint x="46" y="690.12" as="sourcePoint" />
            <mxPoint x="-360" y="690" as="targetPoint" />
          </mxGeometry>
        </mxCell>
        <mxCell id="axSHeAp-DngT5ct-2jIC-29" value="order received notification" style="html=1;verticalAlign=bottom;endArrow=block;labelBackgroundColor=none;fontFamily=Verdana;fontSize=12;edgeStyle=elbowEdgeStyle;elbow=vertical;entryX=0.049;entryY=0.004;entryDx=0;entryDy=0;entryPerimeter=0;" edge="1" parent="1" target="axSHeAp-DngT5ct-2jIC-27">
          <mxGeometry relative="1" as="geometry">
            <mxPoint x="250.5" y="550.5" as="sourcePoint" />
            <Array as="points">
              <mxPoint x="250.5" y="550" />
            </Array>
            <mxPoint x="680" y="550" as="targetPoint" />
          </mxGeometry>
        </mxCell>
        <mxCell id="axSHeAp-DngT5ct-2jIC-57" value="status" style="html=1;verticalAlign=bottom;endArrow=open;dashed=1;endSize=8;labelBackgroundColor=none;fontFamily=Verdana;fontSize=12;edgeStyle=elbowEdgeStyle;elbow=vertical;entryX=-0.038;entryY=0.841;entryDx=0;entryDy=0;entryPerimeter=0;" edge="1" parent="1" target="axSHeAp-DngT5ct-2jIC-41">
          <mxGeometry relative="1" as="geometry">
            <mxPoint x="914.5" y="760" as="targetPoint" />
            <Array as="points">
              <mxPoint x="860" y="760" />
              <mxPoint x="890" y="760" />
            </Array>
            <mxPoint x="835" y="760.5" as="sourcePoint" />
          </mxGeometry>
        </mxCell>
        <mxCell id="axSHeAp-DngT5ct-2jIC-56" value="updateDB" style="html=1;verticalAlign=bottom;endArrow=block;labelBackgroundColor=none;fontFamily=Verdana;fontSize=12;edgeStyle=elbowEdgeStyle;elbow=vertical;exitX=0.02;exitY=0.219;exitDx=0;exitDy=0;exitPerimeter=0;entryX=0.929;entryY=-0.012;entryDx=0;entryDy=0;entryPerimeter=0;" edge="1" parent="1" target="axSHeAp-DngT5ct-2jIC-55" source="axSHeAp-DngT5ct-2jIC-41">
          <mxGeometry x="0.0007" y="20" relative="1" as="geometry">
            <mxPoint x="959.7700000000001" y="719.8199999999999" as="sourcePoint" />
            <mxPoint x="840" y="720" as="targetPoint" />
            <mxPoint as="offset" />
          </mxGeometry>
        </mxCell>
        <mxCell id="axSHeAp-DngT5ct-2jIC-61" value="Seller Withdraw" style="shape=umlFrame;whiteSpace=wrap;html=1;pointerEvents=0;width=80;height=40;" vertex="1" parent="1">
          <mxGeometry x="140" y="530" width="870" height="300" as="geometry" />
        </mxCell>
        <mxCell id="axSHeAp-DngT5ct-2jIC-23" value="order cancellation status" style="html=1;verticalAlign=bottom;endArrow=open;labelBackgroundColor=none;fontFamily=Verdana;fontSize=12;edgeStyle=orthogonalEdgeStyle;elbow=vertical;exitX=0.026;exitY=1.006;exitDx=0;exitDy=0;exitPerimeter=0;dashed=1;endFill=0;entryX=-0.091;entryY=0.107;entryDx=0;entryDy=0;entryPerimeter=0;curved=1;" edge="1" parent="1" target="axSHeAp-DngT5ct-2jIC-72">
          <mxGeometry relative="1" as="geometry">
            <mxPoint x="685.26" y="1080.42" as="sourcePoint" />
            <mxPoint x="308.896484375" y="1080" as="targetPoint" />
            <Array as="points">
              <mxPoint x="350" y="1080" />
              <mxPoint x="350" y="1132" />
            </Array>
          </mxGeometry>
        </mxCell>
        <mxCell id="axSHeAp-DngT5ct-2jIC-73" value="order&amp;nbsp;&lt;div&gt;cancellation failed&lt;/div&gt;" style="html=1;verticalAlign=bottom;endArrow=block;labelBackgroundColor=none;fontFamily=Verdana;fontSize=12;edgeStyle=elbowEdgeStyle;elbow=vertical;exitX=-0.136;exitY=0.731;exitDx=0;exitDy=0;exitPerimeter=0;" edge="1" parent="1" source="axSHeAp-DngT5ct-2jIC-72">
          <mxGeometry relative="1" as="geometry">
            <mxPoint x="540" y="1200" as="sourcePoint" />
            <mxPoint x="260" y="1200" as="targetPoint" />
          </mxGeometry>
        </mxCell>
        <mxCell id="axSHeAp-DngT5ct-2jIC-77" value="refundStatus" style="html=1;verticalAlign=bottom;endArrow=open;dashed=1;endSize=8;labelBackgroundColor=none;fontFamily=Verdana;fontSize=12;edgeStyle=elbowEdgeStyle;elbow=horizontal;exitX=0.036;exitY=0.933;exitDx=0;exitDy=0;exitPerimeter=0;entryX=1.171;entryY=0.972;entryDx=0;entryDy=0;entryPerimeter=0;" edge="1" parent="1" target="axSHeAp-DngT5ct-2jIC-19">
          <mxGeometry relative="1" as="geometry">
            <mxPoint x="330" y="1290" as="targetPoint" />
            <Array as="points">
              <mxPoint x="280" y="1291" />
              <mxPoint x="530" y="1290" />
            </Array>
            <mxPoint x="550" y="1290" as="sourcePoint" />
          </mxGeometry>
        </mxCell>
        <mxCell id="axSHeAp-DngT5ct-2jIC-78" value="order cancel &amp;amp; refund" style="shape=umlFrame;whiteSpace=wrap;html=1;pointerEvents=0;width=90;height=50;" vertex="1" parent="1">
          <mxGeometry x="140" y="920" width="870" height="410" as="geometry" />
        </mxCell>
      </root>
    </mxGraphModel>
  </diagram>
</mxfile>
